<?xml version="1.0" encoding="utf-8"?>
<!-- Generator: Adobe Illustrator 27.9.0, SVG Export Plug-In . SVG Version: 6.00 Build 0)  -->
<svg version="1.1" id="Слой_1" xmlns="http://www.w3.org/2000/svg" xmlns:xlink="http://www.w3.org/1999/xlink" x="0px" y="0px"
	 viewBox="0 0 20 24" style="enable-background:new 0 0 20 24;" xml:space="preserve">
<style type="text/css">
	.st0{fill:#14142B;}
</style>
<path class="st0" d="M20,23.8H1L1.8,6.2h17.3L20,23.8z M2,22.8H19L18.2,7.2H2.8L2,22.8z"/>
<path class="st0" d="M15.3,10.1h-1V5.6c0-1-0.4-2-1.1-2.7c-0.7-0.7-1.7-1.1-2.7-1.1c-1,0-2,0.4-2.7,1.1C7.1,3.6,6.7,4.5,6.7,5.6v4.6
	h-1V5.6c0-1.3,0.5-2.5,1.4-3.4C8,1.2,9.2,0.7,10.5,0.7c1.3,0,2.5,0.5,3.4,1.4c0.9,0.9,1.4,2.1,1.4,3.4V10.1z"/>
</svg>
