<?xml version="1.0" encoding="utf-8"?>
<!-- Generator: Adobe Illustrator 27.9.0, SVG Export Plug-In . SVG Version: 6.00 Build 0)  -->
<svg version="1.1" id="Слой_1" xmlns="http://www.w3.org/2000/svg" xmlns:xlink="http://www.w3.org/1999/xlink" x="0px" y="0px"
	 viewBox="0 0 22 22" style="enable-background:new 0 0 22 22;" xml:space="preserve">
<style type="text/css">
	.st0{fill:#14142B;}
</style>
<path class="st0" d="M2.08,21.86c-0.35,0-0.55-0.02-0.6-0.03l-0.4-0.04L0.3,14.7l5.57-3.18l2.54,2.54c0.53-0.18,1.86-0.74,3.39-2.27
	c1.52-1.53,2.09-2.86,2.27-3.39l-2.54-2.54L14.7,0.3l7.09,0.79l0.04,0.4c0.03,0.27,0.65,6.69-6.51,13.84
	C9.33,21.32,3.86,21.86,2.08,21.86z M1.98,20.85c0,0,0.01,0,0.01,0c1.48,0,6.83-0.44,12.62-6.24c5.81-5.81,6.24-11.16,6.23-12.63
	l-5.61-0.62L12.77,5.7l2.39,2.39l-0.05,0.26c-0.02,0.08-0.41,1.94-2.61,4.15c-2.2,2.2-4.07,2.6-4.14,2.61l-0.26,0.05L5.7,12.77
	l-4.33,2.48L1.98,20.85z"/>
</svg>
