<?xml version="1.0" encoding="utf-8"?>
<!-- Generator: Adobe Illustrator 27.9.0, SVG Export Plug-In . SVG Version: 6.00 Build 0)  -->
<svg version="1.1" id="Слой_1" xmlns="http://www.w3.org/2000/svg" xmlns:xlink="http://www.w3.org/1999/xlink" x="0px" y="0px"
	 viewBox="0 0 22 18" style="enable-background:new 0 0 22 18;" xml:space="preserve">
<style type="text/css">
	.st0{fill-rule:evenodd;clip-rule:evenodd;}
</style>
<polygon points="21.99,15.48 19.49,15.48 19.49,14.48 20.99,14.48 20.99,8.46 16.85,4.37 12.57,4.37 12.57,3.37 17.26,3.37 
	21.99,8.04 "/>
<rect x="7.56" y="14.59" width="6.73" height="1"/>
<path d="M16.95,17.91c-1.61,0-2.92-1.31-2.92-2.92s1.31-2.92,2.92-2.92s2.92,1.31,2.92,2.92S18.56,17.91,16.95,17.91z M16.95,13.06
	c-1.06,0-1.92,0.86-1.92,1.92s0.86,1.92,1.92,1.92s1.92-0.86,1.92-1.92S18.01,13.06,16.95,13.06z"/>
<path class="st0" d="M5.05,16.91c1.06,0,1.92-0.86,1.92-1.92s-0.86-1.92-1.92-1.92c-1.06,0-1.92,0.86-1.92,1.92
	S3.99,16.91,5.05,16.91z M5.05,17.91c1.61,0,2.92-1.31,2.92-2.92s-1.31-2.92-2.92-2.92c-1.61,0-2.92,1.31-2.92,2.92
	S3.44,17.91,5.05,17.91z"/>
<polygon points="1,15.49 0,15.49 0,0 13,0.02 13,15.48 7.45,15.48 7.45,14.48 12,14.48 12,1.02 1,1 "/>
<rect x="0.2" y="14.48" width="2.5" height="1"/>
</svg>
