<?xml version="1.0" encoding="utf-8"?>
<!-- Generator: Adobe Illustrator 27.9.0, SVG Export Plug-In . SVG Version: 6.00 Build 0)  -->
<svg version="1.1" id="Слой_1" xmlns="http://www.w3.org/2000/svg" xmlns:xlink="http://www.w3.org/1999/xlink" x="0px" y="0px"
	 viewBox="0 0 22 18" style="enable-background:new 0 0 22 18;" xml:space="preserve">
<polygon points="22,15.5 19.5,15.5 19.5,14.5 21,14.5 21,8.5 16.9,4.4 12.6,4.4 12.6,3.4 17.3,3.4 22,8 "/>
<rect x="7.6" y="14.6" width="6.7" height="1"/>
<path d="M17,17.9c-1.6,0-2.9-1.3-2.9-2.9s1.3-2.9,2.9-2.9s2.9,1.3,2.9,2.9S18.6,17.9,17,17.9z M17,13.1c-1.1,0-1.9,0.9-1.9,1.9
	s0.9,1.9,1.9,1.9s1.9-0.9,1.9-1.9S18,13.1,17,13.1z"/>
<polygon points="1,15.5 0,15.5 0,0 13,0 13,15.5 7.4,15.5 7.4,14.5 12,14.5 12,1 1,1 "/>
<rect x="0.2" y="14.5" width="2.5" height="1"/>
<path d="M5.3,18c-1.6,0-2.9-1.3-2.9-2.9s1.3-2.9,2.9-2.9s2.9,1.3,2.9,2.9S6.9,18,5.3,18z M5.3,13.2c-1.1,0-1.9,0.9-1.9,1.9
	S4.2,17,5.3,17s1.9-0.9,1.9-1.9S6.3,13.2,5.3,13.2z"/>
</svg>
