<svg width="20" height="24" viewBox="0 0 20 24" fill="none" xmlns="http://www.w3.org/2000/svg">
<path d="M8.94592 0.480673C8.90202 0.481908 8.85848 0.489163 8.81655 0.502236L1.13655 2.90224C1.03892 2.93281 0.953617 2.99378 0.893074 3.07625C0.832531 3.15872 0.799917 3.25837 0.799988 3.36067V21.1207C0.799946 21.2278 0.835728 21.3318 0.901643 21.4163C0.967557 21.5007 1.05981 21.5607 1.16374 21.5866L8.84374 23.5066C8.91451 23.5243 8.98838 23.5256 9.05974 23.5104C9.13109 23.4952 9.19805 23.464 9.25552 23.4191C9.313 23.3742 9.35949 23.3168 9.39145 23.2512C9.42341 23.1856 9.44001 23.1136 9.43999 23.0407V0.960673C9.44001 0.89644 9.42714 0.832855 9.40214 0.773686C9.37714 0.714517 9.34052 0.660966 9.29445 0.616207C9.24838 0.571447 9.19379 0.536389 9.13393 0.513108C9.07406 0.489828 9.01013 0.478798 8.94592 0.480673ZM8.47999 1.61411V22.4257L1.75999 20.7457V3.71317L8.47999 1.61411ZM10.4 2.40067V3.36067H14.24V12.9607H15.2V2.88067C15.2 2.75337 15.1494 2.63129 15.0594 2.54128C14.9694 2.45126 14.8473 2.40069 14.72 2.40067H10.4ZM7.51999 11.5207C7.39268 11.5207 7.27059 11.5965 7.18058 11.7316C7.09056 11.8666 7.03999 12.0497 7.03999 12.2407C7.03999 12.4316 7.09056 12.6148 7.18058 12.7498C7.27059 12.8848 7.39268 12.9607 7.51999 12.9607C7.64729 12.9607 7.76938 12.8848 7.8594 12.7498C7.94942 12.6148 7.99999 12.4316 7.99999 12.2407C7.99999 12.0497 7.94942 11.8666 7.8594 11.7316C7.76938 11.5965 7.64729 11.5207 7.51999 11.5207ZM10.88 13.9207C10.7527 13.9207 10.6306 13.9713 10.5406 14.0613C10.4506 14.1513 10.4 14.2734 10.4 14.4007V21.1207C10.4 21.248 10.4506 21.3701 10.5406 21.4601C10.6306 21.5501 10.7527 21.6007 10.88 21.6007H18.56C18.6873 21.6007 18.8094 21.5501 18.8994 21.4601C18.9894 21.3701 19.04 21.248 19.04 21.1207V14.4007C19.04 14.2734 18.9894 14.1513 18.8994 14.0613C18.8094 13.9713 18.6873 13.9207 18.56 13.9207H10.88ZM11.36 14.8807H18.08V20.6407H11.36V14.8807ZM13.76 15.8407C13.6964 15.8398 13.6332 15.8515 13.5742 15.8752C13.5152 15.899 13.4615 15.9342 13.4162 15.9788C13.3709 16.0235 13.3349 16.0767 13.3103 16.1354C13.2858 16.1941 13.2731 16.2571 13.2731 16.3207C13.2731 16.3843 13.2858 16.4473 13.3103 16.5059C13.3349 16.5646 13.3709 16.6178 13.4162 16.6625C13.4615 16.7072 13.5152 16.7424 13.5742 16.7661C13.6332 16.7898 13.6964 16.8016 13.76 16.8007H15.68C15.7436 16.8016 15.8067 16.7898 15.8658 16.7661C15.9248 16.7424 15.9785 16.7072 16.0238 16.6625C16.0691 16.6178 16.1051 16.5646 16.1296 16.5059C16.1542 16.4473 16.1668 16.3843 16.1668 16.3207C16.1668 16.2571 16.1542 16.1941 16.1296 16.1354C16.1051 16.0767 16.0691 16.0235 16.0238 15.9788C15.9785 15.9342 15.9248 15.899 15.8658 15.8752C15.8067 15.8515 15.7436 15.8398 15.68 15.8407H13.76Z" fill="black"/>
</svg>
