<svg width="30" height="31" viewBox="0 0 30 31" fill="none" xmlns="http://www.w3.org/2000/svg">
<path d="M15 0.227417C6.72852 0.227417 0 6.95593 0 15.2274C0 23.4989 6.72852 30.2274 15 30.2274C23.2715 30.2274 30 23.4989 30 15.2274C30 6.95593 23.2715 0.227417 15 0.227417ZM15 2.72742C21.9189 2.72742 27.5 8.30847 27.5 15.2274C27.5 22.1464 21.9189 27.7274 15 27.7274C8.08106 27.7274 2.5 22.1464 2.5 15.2274C2.5 8.30847 8.08106 2.72742 15 2.72742ZM8.125 8.97742C7.08984 8.97742 6.25 9.81726 6.25 10.8524C6.25 10.9696 6.25977 11.0819 6.28906 11.204C6.34277 11.5018 6.46484 11.7557 6.64062 11.9852C7.57812 13.6014 10 15.2274 10 15.2274C10 15.2274 13.75 12.8446 13.75 10.8524C13.75 9.81726 12.9102 8.97742 11.875 8.97742C10.8398 8.97742 10 9.81726 10 10.8524C10 9.81726 9.16016 8.97742 8.125 8.97742ZM18.125 8.97742C17.0898 8.97742 16.25 9.81726 16.25 10.8524C16.25 10.9696 16.2598 11.0819 16.2891 11.204C16.3428 11.5018 16.4648 11.7557 16.6406 11.9852C17.5781 13.6014 20 15.2274 20 15.2274C20 15.2274 22.4854 13.6161 23.3984 11.9462C23.5986 11.5751 23.75 11.2137 23.75 10.8524C23.75 9.81726 22.9102 8.97742 21.875 8.97742C20.8398 8.97742 20 9.81726 20 10.8524C20 9.81726 19.1602 8.97742 18.125 8.97742ZM8.51562 18.9774L6.36719 20.2274C8.0957 23.2108 11.3086 25.2274 15 25.2274C18.6914 25.2274 21.9043 23.2108 23.6328 20.2274L21.4844 18.9774C20.1855 21.2186 17.7832 22.7274 15 22.7274C12.2168 22.7274 9.81445 21.2186 8.51562 18.9774Z" fill="#E0CFBA"/>
</svg>
