<svg width="30" height="31" viewBox="0 0 30 31" fill="none" xmlns="http://www.w3.org/2000/svg">
<path d="M15 0.227417C6.72852 0.227417 0 6.95593 0 15.2274C0 23.4989 6.72852 30.2274 15 30.2274C23.2715 30.2274 30 23.4989 30 15.2274C30 6.95593 23.2715 0.227417 15 0.227417ZM15 2.72742C21.9189 2.72742 27.5 8.30847 27.5 15.2274C27.5 22.1464 21.9189 27.7274 15 27.7274C8.08106 27.7274 2.5 22.1464 2.5 15.2274C2.5 8.30847 8.08106 2.72742 15 2.72742ZM9.375 10.2274C8.33984 10.2274 7.5 11.0673 7.5 12.1024C7.5 13.1376 8.33984 13.9774 9.375 13.9774C10.4102 13.9774 11.25 13.1376 11.25 12.1024C11.25 11.0673 10.4102 10.2274 9.375 10.2274ZM20.625 10.2274C19.5898 10.2274 18.75 11.0673 18.75 12.1024C18.75 13.1376 19.5898 13.9774 20.625 13.9774C21.6602 13.9774 22.5 13.1376 22.5 12.1024C22.5 11.0673 21.6602 10.2274 20.625 10.2274ZM8.51562 18.9774L6.36719 20.2274C8.0957 23.2108 11.3086 25.2274 15 25.2274C18.6914 25.2274 21.9043 23.2108 23.6328 20.2274L21.4844 18.9774C20.1855 21.2186 17.7832 22.7274 15 22.7274C12.2168 22.7274 9.81445 21.2186 8.51562 18.9774Z" fill="#E0CFBA"/>
</svg>
