<svg width="30" height="31" viewBox="0 0 30 31" fill="none" xmlns="http://www.w3.org/2000/svg">
<path d="M15 0.227417C6.73067 0.227417 0 6.95808 0 15.2274C0 23.4967 6.73067 30.2274 15 30.2274C23.2693 30.2274 30 23.4967 30 15.2274C30 6.95808 23.2693 0.227417 15 0.227417ZM15 2.72742C21.9182 2.72742 27.5 8.30925 27.5 15.2274C27.5 22.1456 21.9182 27.7274 15 27.7274C8.08183 27.7274 2.5 22.1456 2.5 15.2274C2.5 8.30925 8.08183 2.72742 15 2.72742ZM7.00928 11.7338L5.49072 13.7211C5.49072 13.7211 7.39345 15.2274 10 15.2274C12.6066 15.2274 14.5093 13.7211 14.5093 13.7211L12.9907 11.7338C12.9907 11.7338 11.6209 12.7274 10 12.7274C8.37906 12.7274 7.00928 11.7338 7.00928 11.7338ZM17.0093 11.7338L15.4907 13.7211C15.4907 13.7211 17.3934 15.2274 20 15.2274C22.6066 15.2274 24.5093 13.7211 24.5093 13.7211L22.9907 11.7338C22.9907 11.7338 21.6209 12.7274 20 12.7274C18.3791 12.7274 17.0093 11.7338 17.0093 11.7338ZM15 18.9774C12.3934 18.9774 10.4907 20.4838 10.4907 20.4838L12.0093 22.4711C12.0093 22.4711 13.3791 21.4774 15 21.4774C16.6209 21.4774 17.9907 22.4711 17.9907 22.4711L19.5093 20.4838C19.5093 20.4838 17.6066 18.9774 15 18.9774Z" fill="#E0CFBA"/>
</svg>
