<?xml version="1.0" encoding="utf-8"?>
<!-- Generator: Adobe Illustrator 27.9.0, SVG Export Plug-In . SVG Version: 6.00 Build 0)  -->
<svg version="1.1" id="Слой_1" xmlns="http://www.w3.org/2000/svg" xmlns:xlink="http://www.w3.org/1999/xlink" x="0px" y="0px"
	 viewBox="0 0 24 22" style="enable-background:new 0 0 24 22;" xml:space="preserve">
<style type="text/css">
	.st0{fill:#14142B;}
</style>
<path class="st0" d="M12.1,21.2L12.1,21.2l-0.5-0.4l-9.2-9.2c-2.6-2.6-2.6-6.7,0-9.3l0,0c2.6-2.6,6.7-2.6,9.3,0L12,2.7l0.3-0.3
	c1.2-1.2,2.9-1.9,4.6-1.9c1.8,0,3.4,0.7,4.6,1.9s1.9,2.9,1.9,4.6s-0.7,3.4-1.9,4.6L12.1,21.2z M11.9,19.8L11.9,19.8l8.9-8.8
	c1-1,1.6-2.4,1.6-3.9s-0.6-2.9-1.6-3.9c-1-1-2.4-1.6-3.9-1.6c-1.5,0-2.9,0.6-3.9,1.6l-0.3,0.3c-0.4,0.4-1,0.4-1.4,0L11,3.1
	C8.8,1,5.3,1,3.1,3.1C1,5.3,1,8.8,3.1,11L11.9,19.8z"/>
</svg>
