<svg width="20" height="20" viewBox="0 0 20 20" fill="none" xmlns="http://www.w3.org/2000/svg">
<path d="M5.99834 0.155273C2.91114 0.155273 0.399902 2.66884 0.399902 5.75684V13.7568C0.399902 16.844 2.91346 19.3553 6.00146 19.3553H14.0015C17.0887 19.3553 19.5999 16.8417 19.5999 13.7537V5.75371C19.5999 2.66651 17.0863 0.155273 13.9983 0.155273H5.99834ZM15.5999 3.35527C16.0415 3.35527 16.3999 3.71367 16.3999 4.15527C16.3999 4.59687 16.0415 4.95527 15.5999 4.95527C15.1583 4.95527 14.7999 4.59687 14.7999 4.15527C14.7999 3.71367 15.1583 3.35527 15.5999 3.35527ZM9.9999 4.95527C12.6471 4.95527 14.7999 7.10807 14.7999 9.75527C14.7999 12.4025 12.6471 14.5553 9.9999 14.5553C7.3527 14.5553 5.1999 12.4025 5.1999 9.75527C5.1999 7.10807 7.3527 4.95527 9.9999 4.95527ZM9.9999 6.55527C9.15121 6.55527 8.33728 6.89242 7.73716 7.49253C7.13704 8.09265 6.7999 8.90658 6.7999 9.75527C6.7999 10.604 7.13704 11.4179 7.73716 12.018C8.33728 12.6181 9.15121 12.9553 9.9999 12.9553C10.8486 12.9553 11.6625 12.6181 12.2626 12.018C12.8628 11.4179 13.1999 10.604 13.1999 9.75527C13.1999 8.90658 12.8628 8.09265 12.2626 7.49253C11.6625 6.89242 10.8486 6.55527 9.9999 6.55527Z" fill="#80796B"/>
</svg>
