<?xml version="1.0" encoding="utf-8"?>
<!-- Generator: Adobe Illustrator 27.9.0, SVG Export Plug-In . SVG Version: 6.00 Build 0)  -->
<svg version="1.1" id="Слой_1" xmlns="http://www.w3.org/2000/svg" xmlns:xlink="http://www.w3.org/1999/xlink" x="0px" y="0px"
	 viewBox="0 0 20 14" style="enable-background:new 0 0 20 14;" xml:space="preserve">
<path d="M19.36,13.62H0.48l0.03-0.52c0.14-2.77,1.86-8.01,7.42-8.01c4.53,0,8.03-0.06,9.72-0.1c-0.83-2.69-3.38-3.43-4.69-3.43H5.67
	v-1h7.29c1.62,0,4.83,0.93,5.73,4.4l0.01,0l0.08,0.41c0,0,0,0,0,0.01v0c0.69,3.55,0.71,6.65,0.62,7.79L19.36,13.62z M1.55,12.62
	h16.87c0.04-1.28-0.03-3.78-0.55-6.64c-1.61,0.04-5.22,0.11-9.94,0.11C3.45,6.09,1.85,10.1,1.55,12.62z"/>
<circle cx="10.75" cy="9.27" r="0.74"/>
</svg>
