<?xml version="1.0" encoding="utf-8"?>
<!-- Generator: Adobe Illustrator 27.9.0, SVG Export Plug-In . SVG Version: 6.00 Build 0)  -->
<svg version="1.1" id="Слой_1" xmlns="http://www.w3.org/2000/svg" xmlns:xlink="http://www.w3.org/1999/xlink" x="0px" y="0px"
	 viewBox="0 0 22 25" style="enable-background:new 0 0 22 25;" xml:space="preserve">
<style type="text/css">
	.st0{fill:#14142B;}
</style>
<path class="st0" d="M11,24.62l-0.3-0.22C10.28,24.09,0.5,16.71,0.5,11C0.5,5.21,5.21,0.5,11,0.5c5.79,0,10.5,4.71,10.5,10.5
	c0,5.71-9.78,13.09-10.2,13.4L11,24.62z M11,1.5c-5.24,0-9.5,4.26-9.5,9.5c0,4.69,7.85,11.08,9.5,12.37
	c1.65-1.29,9.5-7.68,9.5-12.37C20.5,5.76,16.24,1.5,11,1.5z"/>
<path class="st0" d="M11,14.5c-1.93,0-3.5-1.57-3.5-3.5S9.07,7.5,11,7.5s3.5,1.57,3.5,3.5S12.93,14.5,11,14.5z M11,8.5
	c-1.38,0-2.5,1.12-2.5,2.5s1.12,2.5,2.5,2.5c1.38,0,2.5-1.12,2.5-2.5S12.38,8.5,11,8.5z"/>
</svg>
