<?xml version="1.0" encoding="utf-8"?>
<!-- Generator: Adobe Illustrator 27.9.0, SVG Export Plug-In . SVG Version: 6.00 Build 0)  -->
<svg version="1.1" id="Слой_1" xmlns="http://www.w3.org/2000/svg" xmlns:xlink="http://www.w3.org/1999/xlink" x="0px" y="0px"
	 viewBox="0 0 19 16" style="enable-background:new 0 0 19 16;" xml:space="preserve">
<style type="text/css">
	.st0{fill-rule:evenodd;clip-rule:evenodd;}
</style>
<path d="M17.89,15.99h-16v-16h16V15.99z M2.89,14.99h14v-14h-14V14.99z"/>
<path class="st0" d="M18.35,12.4L0.25,3.38l0.45-0.9L18.8,11.5L18.35,12.4z"/>
<path class="st0" d="M12.85,10.75c-0.73,0.74-1.74,1.2-2.85,1.2c-2.21,0-4-1.79-4-4c0-0.2,0.01-0.4,0.04-0.59L5.11,6.9
	C5.03,7.24,5,7.59,5,7.95c0,2.76,2.24,5,5,5c1.51,0,2.87-0.67,3.78-1.73L12.85,10.75z M6.31,6.38c0.61-1.43,2.03-2.43,3.68-2.43
	c2.21,0,4,1.79,4,4c0,0.72-0.19,1.4-0.53,1.99l0.9,0.45c0.4-0.72,0.63-1.55,0.63-2.44c0-2.76-2.24-5-5-5c-2.04,0-3.8,1.23-4.57,2.98
	L6.31,6.38z"/>
</svg>
