<?xml version="1.0" encoding="utf-8"?>
<!-- Generator: Adobe Illustrator 27.9.0, SVG Export Plug-In . SVG Version: 6.00 Build 0)  -->
<svg version="1.1" id="Слой_1" xmlns="http://www.w3.org/2000/svg" xmlns:xlink="http://www.w3.org/1999/xlink" x="0px" y="0px"
	 viewBox="0 0 20 19" style="enable-background:new 0 0 20 19;" xml:space="preserve">
<polygon points="17.54,17.77 2.39,17.77 0.2,3.31 1.19,3.16 3.25,16.77 16.68,16.77 18.89,2.71 19.88,2.86 "/>
<path d="M1.54,8.6c-0.08,0-0.15,0-0.21-0.01l0.09-1C1.44,7.6,3,7.72,3.73,6.22l0.9,0.44C3.88,8.21,2.39,8.6,1.54,8.6z M9.88,8.37
	c-3.17,0-4.08-2.43-4.12-3.71l1-0.03c0,0.11,0.12,2.74,3.12,2.74c2.43,0,3.3-1.86,3.42-2.85l0.99-0.03c0.18,0.95,1.43,2.9,4.13,2.82
	l0.03,1C16.08,8.35,14.62,7.15,13.87,6C13.29,7.17,12.08,8.37,9.88,8.37z"/>
<rect x="9.32" y="-2.77" transform="matrix(0.7142 -0.6999 0.6999 0.7142 -3.8765 9.5981)" width="1" height="24.64"/>
</svg>
