<?xml version="1.0" encoding="utf-8"?>
<!-- Generator: Adobe Illustrator 27.9.0, SVG Export Plug-In . SVG Version: 6.00 Build 0)  -->
<svg version="1.1" id="Слой_1" xmlns="http://www.w3.org/2000/svg" xmlns:xlink="http://www.w3.org/1999/xlink" x="0px" y="0px"
	 viewBox="0 0 25 20" style="enable-background:new 0 0 25 20;" xml:space="preserve">
<style type="text/css">
	.st0{fill:#14142B;}
</style>
<path class="st0" d="M4.24,7.52L3.28,7.24C3.86,5.2,5.06,3.43,6.73,2.12c1.67-1.31,3.68-2.04,5.81-2.11
	c2.13-0.08,4.18,0.51,5.94,1.7c1.76,1.19,3.08,2.87,3.81,4.87l-0.94,0.34c-0.65-1.8-1.84-3.31-3.42-4.38s-3.43-1.59-5.35-1.53
	c-1.91,0.07-3.72,0.72-5.23,1.9C5.84,4.09,4.76,5.68,4.24,7.52z"/>
<path class="st0" d="M12.89,20c-1.87,0-3.7-0.52-5.29-1.52c-1.65-1.03-2.95-2.5-3.77-4.26l0.91-0.42c0.74,1.58,1.91,2.91,3.39,3.83
	c1.48,0.92,3.23,1.39,4.93,1.36c1.75-0.03,3.43-0.57,4.88-1.54c1.45-0.98,2.57-2.35,3.25-3.95l0.92,0.39
	c-0.75,1.79-2,3.31-3.61,4.39c-1.61,1.09-3.48,1.68-5.42,1.72C13.01,20,12.95,20,12.89,20z"/>
<polygon class="st0" points="2.96,17.73 2.03,17.37 3.8,12.84 8.57,12.53 8.63,13.52 4.5,13.79 "/>
<polygon class="st0" points="17.08,7.86 17.07,6.86 21.35,6.85 22.81,2.96 23.75,3.31 22.05,7.85 "/>
</svg>
