<?xml version="1.0" encoding="utf-8"?>
<!-- Generator: Adobe Illustrator 27.9.0, SVG Export Plug-In . SVG Version: 6.00 Build 0)  -->
<svg version="1.1" id="Слой_1" xmlns="http://www.w3.org/2000/svg" xmlns:xlink="http://www.w3.org/1999/xlink" x="0px" y="0px"
	 viewBox="0 0 28 30" style="enable-background:new 0 0 28 30;" xml:space="preserve">
<style type="text/css">
	.st0{fill:#FFFFFF;}
</style>
<path class="st0" d="M12.78,24.94c-6.88,0-12.47-5.59-12.47-12.47C0.31,5.59,5.91,0,12.78,0c6.88,0,12.47,5.59,12.47,12.47
	C25.25,19.35,19.66,24.94,12.78,24.94z M12.78,1.31c-6.15,0-11.16,5.01-11.16,11.16c0,6.15,5.01,11.16,11.16,11.16
	c6.15,0,11.16-5.01,11.16-11.16C23.94,6.32,18.94,1.31,12.78,1.31z"/>
<rect x="22.63" y="20.03" transform="matrix(0.7071 -0.7071 0.7071 0.7071 -11.2803 23.9621)" class="st0" width="1.31" height="11.14"/>
</svg>
