<?xml version="1.0" encoding="utf-8"?>
<!-- Generator: Adobe Illustrator 27.9.0, SVG Export Plug-In . SVG Version: 6.00 Build 0)  -->
<svg version="1.1" id="Слой_1" xmlns="http://www.w3.org/2000/svg" xmlns:xlink="http://www.w3.org/1999/xlink" x="0px" y="0px"
	 viewBox="0 0 24 24" style="enable-background:new 0 0 24 24;" xml:space="preserve">
<style type="text/css">
	.st0{fill:#14142B;}
</style>
<path class="st0" d="M12.12,24L0,11.88L0.46,0.46L11.88,0L24,12.12L12.12,24z M1,11.49L12.12,22.6L22.6,12.12L11.49,1L1.41,1.41
	L1,11.49z"/>
<path class="st0" d="M7.34,8.25c-0.82,0-1.48-0.67-1.48-1.48s0.67-1.48,1.48-1.48s1.48,0.67,1.48,1.48S8.16,8.25,7.34,8.25z
	 M7.34,6.27c-0.27,0-0.49,0.22-0.49,0.49s0.22,0.49,0.49,0.49s0.49-0.22,0.49-0.49S7.61,6.27,7.34,6.27z"/>
</svg>
