<svg width="22" height="19" viewBox="0 0 22 19" fill="none" xmlns="http://www.w3.org/2000/svg">
<path d="M11.0001 0.955078C7.6513 0.955078 3.30479 1.79414 3.30479 1.79414L3.29385 1.80664C1.76863 2.05057 0.600098 3.36118 0.600098 4.95508V9.75508V9.75664V14.5551V14.5566C0.601586 15.3179 0.874394 16.0536 1.36954 16.6318C1.86468 17.21 2.54972 17.5928 3.30166 17.7113L3.30479 17.716C3.30479 17.716 7.6513 18.5566 11.0001 18.5566C14.3489 18.5566 18.6954 17.716 18.6954 17.716L18.697 17.7145C19.4497 17.5961 20.1356 17.2131 20.6311 16.6342C21.1266 16.0553 21.3993 15.3186 21.4001 14.5566V14.5551V9.75664V9.75508V4.95508C21.399 4.19358 21.1263 3.45744 20.6312 2.87892C20.136 2.30041 19.4507 1.91744 18.6985 1.79883L18.6954 1.79414C18.6954 1.79414 14.3489 0.955078 11.0001 0.955078ZM8.6001 6.07383L15.0001 9.75508L8.6001 13.4363V6.07383Z" fill="#80796B"/>
</svg>
