<svg width="126" height="20" viewBox="0 0 126 20" fill="none" xmlns="http://www.w3.org/2000/svg">
<path d="M63.0205 10.7274L67.6271 9.93211H125.479V9.72531H67.6271L63.0205 8.72742L58.5796 9.72531H0.520508V9.93211H58.5796L63.0205 10.7274ZM63.0775 9.82871H67.4202L63.5205 10.2274L58.7347 9.82871H63.0775Z" fill="#A8A8A8"/>
<path d="M64.0605 8.7948L64.0762 8.90515L64.1865 8.92078L69.7148 9.72742L64.1865 10.5341L64.0762 10.5497L64.0605 10.66L63.2539 16.1884L62.4473 10.66L62.4316 10.5497L62.3213 10.5341L56.792 9.72742L62.3213 8.92078L62.4316 8.90515L62.4473 8.7948L63.2539 3.2655L64.0605 8.7948Z" fill="#A8A8A8" stroke="#A8A8A8" stroke-width="0.3"/>
</svg>
