<?xml version="1.0" encoding="utf-8"?>
<!-- Generator: Adobe Illustrator 27.9.0, SVG Export Plug-In . SVG Version: 6.00 Build 0)  -->
<svg version="1.1" id="Слой_1" xmlns="http://www.w3.org/2000/svg" xmlns:xlink="http://www.w3.org/1999/xlink" x="0px" y="0px"
	 viewBox="0 0 78 86" style="enable-background:new 0 0 78 86;" xml:space="preserve">
<style type="text/css">
	.st0{fill:#FCF9EC;}
</style>
<path class="st0" d="M30.97,85.54v-70.2h23.69c4.57,0,8.38,0.8,11.41,2.4c3.06,1.6,5.36,3.78,6.89,6.55c1.53,2.77,2.3,5.91,2.3,9.43
	c0,2.93-0.49,5.43-1.47,7.51c-0.98,2.08-2.32,3.76-4.01,5.04c-1.69,1.28-3.58,2.21-5.66,2.78v0.55c2.26,0.16,4.46,0.96,6.58,2.4
	c2.13,1.42,3.87,3.4,5.24,5.96C77.31,60.5,78,63.57,78,67.13c0,3.54-0.79,6.71-2.37,9.5c-1.58,2.77-4,4.95-7.27,6.55
	c-3.24,1.58-7.38,2.36-12.41,2.36H30.97z M37.38,79.78h18.58c5.42,0,9.41-1.2,12-3.6c2.61-2.4,3.91-5.42,3.91-9.05
	c0-2.67-0.65-5.1-1.95-7.27c-1.28-2.19-3.1-3.93-5.45-5.21c-2.33-1.28-5.07-1.92-8.23-1.92H37.38V79.78z M37.38,47.04h17.86
	c2.77,0,5.19-0.57,7.27-1.71c2.08-1.14,3.7-2.72,4.87-4.73c1.17-2.01,1.75-4.31,1.75-6.89c0-3.72-1.21-6.75-3.63-9.08
	c-2.42-2.35-6.03-3.53-10.83-3.53H37.38V47.04z"/>
<path class="st0" d="M33.18,0.46h20.57v70.2h-21.8c-6.7,0-12.42-1.39-17.17-4.18c-4.78-2.79-8.43-6.79-10.97-12
	C1.27,49.27,0,43.02,0,35.73c0-7.36,1.3-13.68,3.91-18.96c2.58-5.26,6.35-9.29,11.31-12.1C20.16,1.87,26.14,0.46,33.18,0.46z
	 M47.34,6.22H33.56c-6.03,0-11.08,1.19-15.15,3.56c-4.07,2.38-7.12,5.77-9.15,10.18C7.22,24.38,6.2,29.63,6.2,35.73
	C6.23,41.79,7.23,47,9.22,51.36c1.97,4.36,4.89,7.71,8.78,10.04c3.86,2.33,8.64,3.5,14.33,3.5h15.01L47.34,6.22z"/>
</svg>
