<svg width="99" height="70" viewBox="0 0 99 70" fill="none" xmlns="http://www.w3.org/2000/svg">
<path d="M48.1825 0.820312C48.1825 0.820312 53.6444 29.4676 52.2793 32.1959C50.4212 35.9093 46.1416 35.6063 44.0942 32.1959C42.294 29.1973 48.1825 0.820312 48.1825 0.820312Z" fill="#80796B"/>
<path d="M71.2717 14.4033C71.2717 14.4033 66.7037 36.1908 64.5748 37.4381C61.6772 39.1357 57.9323 37.0516 57.2208 33.8444C56.5952 31.0244 71.2717 14.4033 71.2717 14.4033Z" fill="#80796B"/>
<path d="M25.908 13.6251C25.908 13.6251 40.2775 30.6275 39.9515 33.0733C39.5078 36.4021 35.5612 38.073 32.5948 36.6614C29.9865 35.4202 25.908 13.6251 25.908 13.6251Z" fill="#80796B"/>
<path d="M10.1583 24.2264C10.1583 24.2264 28.8709 36.2846 29.2743 38.7188C29.8232 42.0319 26.5376 44.7837 23.2881 44.301C20.4309 43.8767 10.1583 24.2264 10.1583 24.2264Z" fill="#80796B"/>
<path d="M87.6759 24.3039C87.6759 24.3039 76.9523 43.8121 74.5522 44.3842C71.2855 45.1629 68.3112 42.0773 68.566 38.802C68.79 35.9221 87.6759 24.3039 87.6759 24.3039Z" fill="#80796B"/>
<path d="M2.7351 39.9563C2.7351 39.9563 18.515 43.7896 20.9137 46.4847C22.8454 48.6553 19.3323 54.3772 16.5762 53.4261C12.3758 51.9766 2.7351 39.9563 2.7351 39.9563Z" fill="#80796B"/>
<path d="M96.2131 40.0532C96.2131 40.0532 84.4898 53.8193 82.3742 53.5315C79.4948 53.1398 77.3815 49.4138 78.0368 46.5901C78.6129 44.1074 96.2131 40.0532 96.2131 40.0532Z" fill="#80796B"/>
<path d="M48.5238 41.0625C28.3343 41.0625 21.468 59.706 20.5586 69.0277C23.0595 61.7522 32.0723 45.155 48.5238 45.155C64.8937 45.155 74.4428 60.3881 77.1711 69.0277C76.0343 59.706 68.7133 41.0625 48.5238 41.0625Z" fill="#80796B"/>
<path d="M48.6123 48.5654C33.531 48.5654 28.402 62.207 27.7227 69.0278C29.5908 63.7042 36.3232 51.5599 48.6123 51.5599C60.8404 51.5599 67.9735 62.7061 70.0115 69.0278C69.1623 62.207 63.6937 48.5654 48.6123 48.5654Z" fill="#80796B"/>
</svg>
