<svg width="53" height="33" viewBox="0 0 53 33" fill="none" xmlns="http://www.w3.org/2000/svg">
<path fill-rule="evenodd" clip-rule="evenodd" d="M26.0756 28.2569C23.3138 30.6403 19.7312 32.0791 15.8164 32.0791C7.08124 32.0791 0 24.9157 0 16.0791C0 7.24255 7.08124 0.0791016 15.8164 0.0791016C19.7312 0.0791016 23.3138 1.51789 26.0756 3.90126C28.8375 1.51789 32.4201 0.0791016 36.3349 0.0791016C45.0701 0.0791016 52.1513 7.24255 52.1513 16.0791C52.1513 24.9157 45.0701 32.0791 36.3349 32.0791C32.4201 32.0791 28.8375 30.6403 26.0756 28.2569Z" fill="#ED0006"/>
<path fill-rule="evenodd" clip-rule="evenodd" d="M26.0757 28.2571C29.4764 25.3224 31.6328 20.9555 31.6328 16.0792C31.6328 11.2029 29.4764 6.83608 26.0757 3.90138C28.8376 1.51801 32.4201 0.0792236 36.3349 0.0792236C45.0701 0.0792236 52.1513 7.24267 52.1513 16.0792C52.1513 24.9158 45.0701 32.0792 36.3349 32.0792C32.4201 32.0792 28.8376 30.6404 26.0757 28.2571Z" fill="#F9A000"/>
<path fill-rule="evenodd" clip-rule="evenodd" d="M26.0756 28.2569C29.4763 25.3222 31.6327 20.9554 31.6327 16.0791C31.6327 11.2029 29.4763 6.83606 26.0756 3.90137C22.6749 6.83606 20.5186 11.2029 20.5186 16.0791C20.5186 20.9554 22.6749 25.3222 26.0756 28.2569Z" fill="#FF5E00"/>
</svg>
