<svg width="99" height="69" viewBox="0 0 99 69" fill="none" xmlns="http://www.w3.org/2000/svg">
<path d="M48.182 0C48.182 0 53.6439 28.6473 52.2788 31.3756C50.4208 35.089 46.1411 34.786 44.0937 31.3756C42.2935 28.377 48.182 0 48.182 0Z" fill="white" fill-opacity="0.37"/>
<path d="M71.2712 13.5835C71.2712 13.5835 66.7032 35.371 64.5743 36.6183C61.6767 38.3158 57.9318 36.2317 57.2203 33.0245C56.5947 30.2045 71.2712 13.5835 71.2712 13.5835Z" fill="white" fill-opacity="0.37"/>
<path d="M25.9075 12.8048C25.9075 12.8048 40.277 29.8072 39.951 32.253C39.5073 35.5817 35.5607 37.2527 32.5943 35.8411C29.986 34.5999 25.9075 12.8048 25.9075 12.8048Z" fill="white" fill-opacity="0.37"/>
<path d="M10.1593 23.4061C10.1593 23.4061 28.8719 35.4643 29.2752 37.8985C29.8242 41.2115 26.5386 43.9634 23.289 43.4807C20.4318 43.0564 10.1593 23.4061 10.1593 23.4061Z" fill="white" fill-opacity="0.37"/>
<path d="M87.6754 23.484C87.6754 23.484 76.9518 42.9923 74.5517 43.5644C71.285 44.3431 68.3107 41.2574 68.5655 37.9822C68.7895 35.1023 87.6754 23.484 87.6754 23.484Z" fill="white" fill-opacity="0.37"/>
<path d="M2.7351 39.136C2.7351 39.136 18.515 42.9693 20.9137 45.6644C22.8454 47.8349 19.3323 53.5569 16.5762 52.6058C12.3758 51.1563 2.7351 39.136 2.7351 39.136Z" fill="white" fill-opacity="0.37"/>
<path d="M96.2126 39.2334C96.2126 39.2334 84.4893 52.9995 82.3737 52.7117C79.4943 52.32 77.381 48.594 78.0363 45.7703C78.6124 43.2875 96.2126 39.2334 96.2126 39.2334Z" fill="white" fill-opacity="0.37"/>
<path d="M48.5258 40.2422C28.3362 40.2422 21.47 58.8857 20.5605 68.2074C23.0615 60.9319 32.0742 44.3347 48.5258 44.3347C64.8956 44.3347 74.4447 59.5677 77.173 68.2074C76.0363 58.8857 68.7153 40.2422 48.5258 40.2422Z" fill="white" fill-opacity="0.37"/>
<path d="M48.6123 47.7456C33.531 47.7456 28.402 61.3872 27.7227 68.208C29.5908 62.8844 36.3232 50.7401 48.6123 50.7401C60.8404 50.7401 67.9735 61.8863 70.0115 68.208C69.1623 61.3872 63.6937 47.7456 48.6123 47.7456Z" fill="white" fill-opacity="0.37"/>
</svg>
