<svg width="74" height="63" viewBox="0 0 74 63" fill="none" xmlns="http://www.w3.org/2000/svg">
<path d="M36.5425 16.0195C23.8595 16.0195 13.5425 26.3365 13.5425 39.0195C13.5425 51.7025 23.8595 62.0195 36.5425 62.0195C49.2255 62.0195 59.5425 51.7025 59.5425 39.0195C59.5425 34.4595 58.2028 30.2089 55.9058 26.6309L54.5366 28.248C56.4316 31.402 57.5425 35.0795 57.5425 39.0195C57.5425 50.5985 48.1215 60.0195 36.5425 60.0195C24.9635 60.0195 15.5425 50.5985 15.5425 39.0195C15.5425 27.4405 24.9635 18.0195 36.5425 18.0195C41.9855 18.0195 46.9364 20.1193 50.6714 23.5293L51.98 21.9844C47.895 18.2794 42.4775 16.0195 36.5425 16.0195ZM54.7788 21.7734L35.4565 44.5742L27.3237 36.9883L25.9604 38.4512L35.6265 47.4668L56.3062 23.0664L54.7788 21.7734Z" fill="#C25940"/>
<path d="M59.999 8.32089C58.951 8.87188 56.3618 9.11676 56.3618 9.11676V10.0963C56.3618 10.0963 58.951 10.3412 59.999 10.8922C60.9853 11.4432 61.8484 12.1778 62.4649 13.1574C63.143 14.1369 63.5745 15.2389 63.8828 16.5245C64.191 17.8102 64.3143 18.9183 64.3143 18.9183H65.1773C65.1773 18.9183 65.4816 17.1608 65.6089 16.5245C65.9171 15.2389 66.4103 14.1369 67.0267 13.1574C67.6432 12.1778 68.4446 11.4432 69.4926 10.8922C70.5406 10.3412 73.1298 10.0963 73.1298 10.0963V9.11676C73.1298 9.11676 70.5406 8.87188 69.4926 8.32089C68.5063 7.7699 67.6432 7.03524 67.0267 6.0557C66.3486 5.07616 65.9171 3.97419 65.6089 2.68854C65.4675 1.93073 65.1773 0 65.1773 0H64.3143C64.3143 0 64.0277 2.19891 63.8828 2.68854C63.5745 3.97419 63.0813 5.07616 62.4649 6.0557C61.8484 7.03524 61.047 7.7699 59.999 8.32089Z" fill="#BD705E"/>
<path d="M3.02847 22.2921C2.40671 22.619 0.870605 22.7643 0.870605 22.7643V23.3454C0.870605 23.3454 2.40671 23.4907 3.02847 23.8176C3.61365 24.1445 4.12568 24.5803 4.49142 25.1615C4.89373 25.7426 5.14975 26.3964 5.33262 27.1591C5.51549 27.9219 5.58864 28.5793 5.58864 28.5793H6.10067C6.10067 28.5793 6.28116 27.5366 6.35669 27.1591C6.53956 26.3964 6.83215 25.7426 7.19788 25.1615C7.56362 24.5803 8.03909 24.1445 8.66084 23.8176C9.2826 23.4907 10.8187 23.3454 10.8187 23.3454V22.7643C10.8187 22.7643 9.2826 22.619 8.66084 22.2921C8.07566 21.9652 7.56362 21.5293 7.19788 20.9482C6.79557 20.367 6.53956 19.7133 6.35669 18.9505C6.27279 18.5009 6.10067 17.3555 6.10067 17.3555H5.58864C5.58864 17.3555 5.41863 18.66 5.33262 18.9505C5.14975 19.7133 4.85716 20.367 4.49142 20.9482C4.12568 21.5293 3.65022 21.9652 3.02847 22.2921Z" fill="#BD705E"/>
</svg>
