<svg width="22" height="15" viewBox="0 0 22 15" fill="none" xmlns="http://www.w3.org/2000/svg">
<path d="M1.7 0.299805C1.0408 0.299805 0.5 0.840604 0.5 1.4998V5.6998H0.8C1.79767 5.6998 2.6 6.50214 2.6 7.4998C2.6 8.49747 1.79767 9.2998 0.8 9.2998H0.5V13.4998C0.5 14.159 1.0408 14.6998 1.7 14.6998H20.3C20.9592 14.6998 21.5 14.159 21.5 13.4998V9.2998H21.2C20.2023 9.2998 19.4 8.49747 19.4 7.4998C19.4 6.50214 20.2023 5.6998 21.2 5.6998H21.5V1.4998C21.5 0.840604 20.9592 0.299805 20.3 0.299805H1.7ZM1.7 0.899805H6.2C6.2 0.97937 6.23161 1.05568 6.28787 1.11194C6.34413 1.1682 6.42044 1.1998 6.5 1.1998C6.57957 1.1998 6.65587 1.1682 6.71213 1.11194C6.76839 1.05568 6.8 0.97937 6.8 0.899805H20.3C20.635 0.899805 20.9 1.1648 20.9 1.4998V5.16074C19.7254 5.31521 18.8 6.28416 18.8 7.4998C18.8 8.71545 19.7254 9.6844 20.9 9.83887V13.4998C20.9 13.8348 20.635 14.0998 20.3 14.0998H6.8C6.8 14.0202 6.76839 13.9439 6.71213 13.8877C6.65587 13.8314 6.57957 13.7998 6.5 13.7998C6.42044 13.7998 6.34413 13.8314 6.28787 13.8877C6.23161 13.9439 6.2 14.0202 6.2 14.0998H1.7C1.365 14.0998 1.1 13.8348 1.1 13.4998V9.83887C2.27462 9.6844 3.2 8.71545 3.2 7.4998C3.2 6.28416 2.27462 5.31521 1.1 5.16074V1.4998C1.1 1.1648 1.365 0.899805 1.7 0.899805ZM6.5 1.7998C6.42044 1.7998 6.34413 1.83141 6.28787 1.88767C6.23161 1.94393 6.2 2.02024 6.2 2.0998C6.2 2.17937 6.23161 2.25568 6.28787 2.31194C6.34413 2.3682 6.42044 2.3998 6.5 2.3998C6.57957 2.3998 6.65587 2.3682 6.71213 2.31194C6.76839 2.25568 6.8 2.17937 6.8 2.0998C6.8 2.02024 6.76839 1.94393 6.71213 1.88767C6.65587 1.83141 6.57957 1.7998 6.5 1.7998ZM6.5 2.9998C6.42044 2.9998 6.34413 3.03141 6.28787 3.08767C6.23161 3.14393 6.2 3.22024 6.2 3.2998C6.2 3.37937 6.23161 3.45568 6.28787 3.51194C6.34413 3.5682 6.42044 3.5998 6.5 3.5998C6.57957 3.5998 6.65587 3.5682 6.71213 3.51194C6.76839 3.45568 6.8 3.37937 6.8 3.2998C6.8 3.22024 6.76839 3.14393 6.71213 3.08767C6.65587 3.03141 6.57957 2.9998 6.5 2.9998ZM10.7293 3.79316C9.8356 3.79316 9.2 4.50841 9.2 5.51641C9.2 6.52951 9.8356 7.24434 10.7293 7.24434C11.623 7.24434 12.2539 6.52921 12.2539 5.51641C12.2539 4.50331 11.623 3.79316 10.7293 3.79316ZM14.985 3.91738L12.4725 7.34805L9.73613 11.0822H10.6496L13.1076 7.7207L15.8885 3.91738H14.985ZM6.5 4.1998C6.42044 4.1998 6.34413 4.23141 6.28787 4.28767C6.23161 4.34393 6.2 4.42024 6.2 4.4998C6.2 4.57937 6.23161 4.65568 6.28787 4.71194C6.34413 4.7682 6.42044 4.7998 6.5 4.7998C6.57957 4.7998 6.65587 4.7682 6.71213 4.71194C6.76839 4.65568 6.8 4.57937 6.8 4.4998C6.8 4.42024 6.76839 4.34393 6.71213 4.28767C6.65587 4.23141 6.57957 4.1998 6.5 4.1998ZM10.7293 4.42891C11.1763 4.42891 11.4594 4.84591 11.4594 5.51641C11.4594 6.17191 11.1661 6.60859 10.7293 6.60859C10.2874 6.60859 9.99453 6.17671 9.99453 5.51641C9.99453 4.85611 10.2823 4.42891 10.7293 4.42891ZM6.5 5.39981C6.42044 5.39981 6.34413 5.43141 6.28787 5.48767C6.23161 5.54393 6.2 5.62024 6.2 5.6998C6.2 5.77937 6.23161 5.85568 6.28787 5.91194C6.34413 5.9682 6.42044 5.9998 6.5 5.9998C6.57957 5.9998 6.65587 5.9682 6.71213 5.91194C6.76839 5.85568 6.8 5.77937 6.8 5.6998C6.8 5.62024 6.76839 5.54393 6.71213 5.48767C6.65587 5.43141 6.57957 5.39981 6.5 5.39981ZM6.5 6.5998C6.42044 6.5998 6.34413 6.63141 6.28787 6.68767C6.23161 6.74393 6.2 6.82024 6.2 6.89981C6.2 6.97937 6.23161 7.05568 6.28787 7.11194C6.34413 7.1682 6.42044 7.1998 6.5 7.1998C6.57957 7.1998 6.65587 7.1682 6.71213 7.11194C6.76839 7.05568 6.8 6.97937 6.8 6.89981C6.8 6.82024 6.76839 6.74393 6.71213 6.68767C6.65587 6.63141 6.57957 6.5998 6.5 6.5998ZM14.876 7.75527C13.9823 7.75527 13.3461 8.47052 13.3461 9.47852C13.3461 10.4916 13.9823 11.2064 14.876 11.2064C15.7697 11.2064 16.4 10.4913 16.4 9.47852C16.4 8.46542 15.7697 7.75527 14.876 7.75527ZM6.5 7.79981C6.42044 7.79981 6.34413 7.83141 6.28787 7.88767C6.23161 7.94393 6.2 8.02024 6.2 8.0998C6.2 8.17937 6.23161 8.25568 6.28787 8.31194C6.34413 8.3682 6.42044 8.39981 6.5 8.39981C6.57957 8.39981 6.65587 8.3682 6.71213 8.31194C6.76839 8.25568 6.8 8.17937 6.8 8.0998C6.8 8.02024 6.76839 7.94393 6.71213 7.88767C6.65587 7.83141 6.57957 7.79981 6.5 7.79981ZM14.876 8.39102C15.323 8.39102 15.6055 8.80802 15.6055 9.47852C15.6055 10.134 15.3128 10.5707 14.876 10.5707C14.4341 10.5707 14.1406 10.1388 14.1406 9.47852C14.1406 8.81822 14.429 8.39102 14.876 8.39102ZM6.5 8.99981C6.42044 8.99981 6.34413 9.03141 6.28787 9.08767C6.23161 9.14393 6.2 9.22024 6.2 9.2998C6.2 9.37937 6.23161 9.45568 6.28787 9.51194C6.34413 9.5682 6.42044 9.5998 6.5 9.5998C6.57957 9.5998 6.65587 9.5682 6.71213 9.51194C6.76839 9.45568 6.8 9.37937 6.8 9.2998C6.8 9.22024 6.76839 9.14393 6.71213 9.08767C6.65587 9.03141 6.57957 8.99981 6.5 8.99981ZM6.5 10.1998C6.42044 10.1998 6.34413 10.2314 6.28787 10.2877C6.23161 10.3439 6.2 10.4202 6.2 10.4998C6.2 10.5794 6.23161 10.6557 6.28787 10.7119C6.34413 10.7682 6.42044 10.7998 6.5 10.7998C6.57957 10.7998 6.65587 10.7682 6.71213 10.7119C6.76839 10.6557 6.8 10.5794 6.8 10.4998C6.8 10.4202 6.76839 10.3439 6.71213 10.2877C6.65587 10.2314 6.57957 10.1998 6.5 10.1998ZM6.5 11.3998C6.42044 11.3998 6.34413 11.4314 6.28787 11.4877C6.23161 11.5439 6.2 11.6202 6.2 11.6998C6.2 11.7794 6.23161 11.8557 6.28787 11.9119C6.34413 11.9682 6.42044 11.9998 6.5 11.9998C6.57957 11.9998 6.65587 11.9682 6.71213 11.9119C6.76839 11.8557 6.8 11.7794 6.8 11.6998C6.8 11.6202 6.76839 11.5439 6.71213 11.4877C6.65587 11.4314 6.57957 11.3998 6.5 11.3998ZM6.5 12.5998C6.42044 12.5998 6.34413 12.6314 6.28787 12.6877C6.23161 12.7439 6.2 12.8202 6.2 12.8998C6.2 12.9794 6.23161 13.0557 6.28787 13.1119C6.34413 13.1682 6.42044 13.1998 6.5 13.1998C6.57957 13.1998 6.65587 13.1682 6.71213 13.1119C6.76839 13.0557 6.8 12.9794 6.8 12.8998C6.8 12.8202 6.76839 12.7439 6.71213 12.6877C6.65587 12.6314 6.57957 12.5998 6.5 12.5998Z" fill="#979797"/>
</svg>
