<svg width="125" height="20" viewBox="0 0 125 20" fill="none" xmlns="http://www.w3.org/2000/svg">
<path d="M62.5 11.2549L67.1065 10.4596H124.959V10.2528H67.1065L62.5 9.25488L58.0591 10.2528H0V10.4596H58.0591L62.5 11.2549ZM62.5569 10.3562H66.8997L63 10.7549L58.2142 10.3562H62.5569Z" fill="#A8A8A8"/>
<path d="M63.541 9.32227L63.5566 9.43262L63.667 9.44824L69.1953 10.2549L63.667 11.0615L63.5566 11.0771L63.541 11.1875L62.7344 16.7158L61.9277 11.1875L61.9121 11.0771L61.8018 11.0615L56.2725 10.2549L61.8018 9.44824L61.9121 9.43262L61.9277 9.32227L62.7344 3.79297L63.541 9.32227Z" fill="#A8A8A8" stroke="#A8A8A8" stroke-width="0.3"/>
</svg>
